<svg width="229" height="224" viewBox="0 0 229 224" fill="none" xmlns="http://www.w3.org/2000/svg">
<mask id="mask0_1744_2821" style="mask-type:luminance" maskUnits="userSpaceOnUse" x="0" y="0" width="229" height="224">
<path d="M0 0H228.667V224H0V0Z" fill="white"/>
</mask>
<g mask="url(#mask0_1744_2821)">
<path d="M193.773 127.762C197.723 119.45 199.938 110.171 199.938 100.382C199.938 91.6137 198.163 83.2587 194.955 75.6389C213.974 73.3815 228.524 57.3125 228.524 37.9562C228.524 17.026 211.416 0 190.388 0C169.358 0 152.253 17.026 152.253 37.9562C152.253 38.0959 152.259 38.2326 152.262 38.3724C146.882 36.9232 141.23 36.1424 135.397 36.1424C129.655 36.1424 124.095 36.8958 118.79 38.3025C110.432 17.2569 89.8181 3.23264 66.9679 3.23264C36.2426 3.23264 11.2504 28.1094 11.2504 58.6858C11.2504 80.1293 23.7556 99.5616 42.8841 108.701C18.1897 115.704 0.0546875 138.365 0.0546875 165.165C0.0546875 197.531 26.5143 223.866 59.0321 223.866C91.556 223.866 118.016 197.531 118.016 165.165C118.016 164.181 117.988 163.206 117.937 162.237C122.214 163.428 126.602 164.169 131.056 164.464C130.336 167.827 129.962 171.275 129.962 174.742C129.962 201.83 152.104 223.866 179.32 223.866C206.53 223.866 228.673 201.83 228.673 174.742C228.673 153.046 214.43 134.036 193.773 127.762ZM212.203 178.737H202.666C201.663 178.737 200.852 179.548 200.852 180.551V200.946H187.83V180.551C187.83 179.548 187.019 178.737 186.017 178.737H172.624C171.622 178.737 170.81 179.548 170.81 180.551V200.946H157.789V180.551C157.789 179.548 156.974 178.737 155.972 178.737H146.438L163.734 158.083C171.002 154.532 177.507 149.661 182.93 143.786L212.203 178.737ZM184.2 182.368V200.946H174.438V182.368H184.2ZM179.77 27.0703C181.107 30.2726 183.1 33.0343 185.713 35.3069C186.247 35.7747 187.004 35.8872 187.648 35.5924C188.292 35.3038 188.708 34.6628 188.717 33.9549C188.772 27.1979 190.343 21.5712 193.497 16.8741C194.77 20.1432 196.811 23.549 198.944 27.0977C202.377 32.8247 205.932 38.7461 205.932 43.9171C205.932 49.319 203.732 54.1467 200.296 57.3155C198.944 51.2695 196.055 45.98 191.677 41.5686C191.336 41.2222 190.875 41.0278 190.388 41.0278C189.902 41.0278 189.441 41.2222 189.1 41.5686C185.345 45.3542 182.705 49.9236 181.21 55.1797C179.287 53.2535 177.248 51.4427 175.091 49.7626C174.471 48.0369 174.152 46.2565 174.152 44.4701C174.152 38.3967 177.51 31.2114 179.77 27.0703ZM190.392 45.5091C193.885 49.5043 196.122 54.2348 197.051 59.6033C195.116 60.6181 192.959 61.1862 190.692 61.1862C189.064 61.1862 187.444 60.9188 185.871 60.3932C185.312 59.7036 184.75 59.0169 184.163 58.3455C185.199 53.4115 187.286 49.1003 190.392 45.5091ZM56.3069 93.4731L64.4766 64.9718C64.6346 64.4279 64.5221 63.8385 64.1819 63.3798C63.8355 62.9271 63.3008 62.6597 62.7296 62.6597H42.5681L71.6923 24.6215L64.3824 51.704C64.2305 52.2509 64.349 52.8342 64.6953 53.2778C65.0356 53.7274 65.5703 53.9918 66.1324 53.9918H90.7934C85.1879 59.3299 80.5486 65.6615 77.158 72.704L56.3069 93.4731ZM75.2591 90.7114H93.6827V117.697C88.1259 113.662 81.8399 110.575 75.0586 108.664C74.6819 105.933 74.4813 103.153 74.4813 100.382C74.4813 97.0885 74.7517 93.862 75.2591 90.7114ZM60.1046 220.224C59.3785 218.799 58.0842 215.845 58.0842 212.859C58.0842 209.815 59.424 206.807 60.1411 205.418C65.2331 204.865 69.207 200.56 69.207 195.344V192.925C77.954 192.02 84.793 184.64 84.793 175.693V167.863H87.7522C93.0204 167.863 97.3134 163.592 97.3134 158.339C97.3134 153.082 93.0204 148.808 87.7522 148.808H80.181V134.656C80.181 130.527 76.8086 127.167 72.6675 127.167C68.5234 127.167 65.151 130.527 65.151 134.656V148.808H52.9132V134.656C52.9132 130.527 49.5438 127.167 45.4028 127.167C41.2556 127.167 37.8863 130.527 37.8863 134.656V148.808H30.3212C25.0438 148.808 20.7539 153.082 20.7539 158.339C20.7539 163.592 25.0438 167.863 30.3212 167.863H33.2713V175.693C33.2713 184.64 40.1133 192.02 48.8572 192.925V195.344C48.8572 199.98 52.0017 203.893 56.2704 205.096C55.4258 207.01 54.4566 209.869 54.4566 212.859C54.4566 215.615 55.283 218.261 56.076 220.157C26.9275 218.619 3.68533 194.542 3.68533 165.165C3.68533 134.796 28.5135 110.092 59.0321 110.092C89.5569 110.092 114.385 134.796 114.385 165.165C114.385 195.177 90.1311 219.652 60.1046 220.224ZM69.5959 164.236C70.5985 164.236 71.4128 165.047 71.4128 166.049C71.4128 167.052 70.5985 167.863 69.5959 167.863H48.4744C47.4718 167.863 46.6576 167.052 46.6576 166.049C46.6576 165.047 47.4718 164.236 48.4744 164.236H69.5959ZM68.7817 148.808V134.656C68.7817 132.529 70.5287 130.797 72.6675 130.797C74.8095 130.797 76.5504 132.529 76.5504 134.656V148.808H68.7817ZM49.2856 148.808H41.5139V134.656C41.5139 132.529 43.2609 130.797 45.4028 130.797C47.5417 130.797 49.2856 132.529 49.2856 134.656V148.808ZM48.4744 175.431H69.5959C70.5985 175.431 71.4128 176.243 71.4128 177.245C71.4128 178.248 70.5985 179.059 69.5959 179.059H48.4744C47.4718 179.059 46.6576 178.248 46.6576 177.245C46.6576 176.243 47.4718 175.431 48.4744 175.431ZM52.4879 193.023H65.5794V195.344C65.5794 198.932 62.6445 201.849 59.0321 201.849C55.4258 201.849 52.4879 198.932 52.4879 195.344V193.023ZM117.615 158.354C115.855 143.278 108.339 129.928 97.3134 120.543V111.25H130.904C132.617 111.25 134.24 112.07 135.248 113.449L145.059 126.854C143.916 129.928 143.236 133.052 143.236 135.364C143.236 142.157 148.996 147.687 156.072 147.687C163.148 147.687 168.908 142.157 168.908 135.364C168.908 130.797 166.189 122.439 161.921 118.086L164.855 115.959C165.244 115.676 165.509 115.251 165.585 114.774C165.658 114.297 165.539 113.808 165.253 113.419L154.863 99.2153C149.3 91.6168 140.346 87.0807 130.904 87.0807H129.175V77.6411H136.123C140.662 77.6411 144.36 73.9466 144.36 69.4045V67.3325C144.36 62.7873 140.662 59.0898 136.123 59.0898H105.623C101.078 59.0898 97.3802 62.7873 97.3802 67.3325V69.4045C97.3802 73.9466 101.078 77.6411 105.623 77.6411H112.571V87.0807H75.9609C82.0708 60.0378 106.398 39.77 135.397 39.77C168.981 39.77 196.307 66.9588 196.307 100.382C196.307 133.799 168.981 160.988 135.397 160.988C129.333 160.988 123.36 160.095 117.615 158.354ZM116.202 77.6411H125.544V87.0807H116.202V77.6411ZM105.623 74.0135C103.077 74.0135 101.011 71.9445 101.011 69.4045V67.3325C101.011 64.7865 103.077 62.7174 105.623 62.7174H136.123C138.663 62.7174 140.732 64.7865 140.732 67.3325V69.4045C140.732 71.9445 138.663 74.0135 136.123 74.0135H105.623ZM147.504 124.049L142.446 117.144L156.191 107.181L161.249 114.09L147.504 124.049ZM165.281 135.364C165.281 140.158 161.149 144.059 156.072 144.059C150.998 144.059 146.863 140.158 146.863 135.364C146.863 133.395 147.532 130.515 148.607 127.735L158.94 120.249C162.513 123.487 165.281 131.305 165.281 135.364Z" fill="#057EE6"/>
</g>
</svg>
