<svg width="70" height="70" viewBox="0 0 70 70" fill="none" xmlns="http://www.w3.org/2000/svg">
<path d="M43.8334 30.811H39.6767L40.7981 20.8711L42.0241 10.0168L35.552 18.816L23.6676 34.9681L20.25 39.6144H26.0161H30.2688L29.4251 49.6098L28.5312 60.2075L34.7052 51.5495L46.2063 35.4211L49.4957 30.811H43.8334Z" fill="#FECD57"/>
<path d="M35.0042 0C15.7281 0 0.0928491 15.5859 0.00847812 34.844C0.00314511 34.8952 0 34.9465 0 35C0 35.8054 0.653636 36.4591 1.45878 36.4591C2.26393 36.4591 2.91661 35.8054 2.91661 35H2.92413C2.92413 30.6677 3.77208 26.4659 5.44459 22.5117C7.0594 18.692 9.3727 15.2612 12.3202 12.3134C15.2668 9.36535 18.6982 7.05178 22.5173 5.43691C26.471 3.76419 30.6714 2.91601 35.0042 2.91601C39.336 2.91601 43.5353 3.76406 47.491 5.43691C51.3101 7.05191 54.7405 9.36549 57.6881 12.3134C58.7733 13.4006 59.7728 14.5521 60.6827 15.7655L63.4574 14.6205C57.1074 5.76787 46.7287 0 35.0042 0Z" fill="#1263D7"/>
<path d="M68.5449 33.541C67.7396 33.541 67.0859 34.1947 67.0859 35.0001C67.0859 39.3324 66.2401 43.5344 64.5677 47.4865C62.9508 51.3081 60.6396 54.7389 57.6921 57.6869C54.7443 60.6328 51.3139 62.9485 47.4927 64.5633C43.5391 66.2361 39.3398 67.0842 35.008 67.0842C30.6752 67.0842 26.4748 66.2362 22.5211 64.5633C18.702 62.9483 15.2706 60.6328 12.324 57.6869C11.2283 56.591 10.2211 55.429 9.30373 54.2026L6.53125 55.3477C12.8793 64.2195 23.2676 70.0001 35.008 70.0001C54.3343 70.0001 70.0038 54.3309 70.0038 35.0001C70.0038 34.1947 69.3503 33.541 68.5449 33.541Z" fill="#1263D7"/>
<path d="M42.0241 10.0168L20.25 39.6144H30.2688L28.5312 60.2075L34.1776 36.5276L25.9488 36.3908L42.0241 10.0168Z" fill="#F6BB42"/>
<path d="M63.8186 16.9382C63.9702 16.7439 64.0728 16.511 64.1092 16.2547C64.1197 16.1863 64.1261 16.1157 64.1261 16.0453V5.8341C64.1261 5.02871 63.4725 4.375 62.6694 4.375C61.8621 4.375 61.2106 5.02871 61.2106 5.8341V14.5862H52.498C51.6927 14.5862 51.0391 15.2398 51.0391 16.0452C51.0391 16.8506 51.6927 17.5021 52.498 17.5021H62.6694C62.74 17.5021 62.8104 17.4957 62.8788 17.485C63.1352 17.4486 63.3679 17.346 63.5622 17.1945C63.5751 17.186 63.5857 17.1774 63.5964 17.1688C63.6135 17.1559 63.6263 17.141 63.6434 17.1261C63.6605 17.109 63.6819 17.0941 63.6989 17.0748C63.7182 17.0578 63.7331 17.0385 63.7502 17.0193C63.7651 17.0022 63.7802 16.9894 63.7929 16.9723C63.8015 16.9617 63.8101 16.9509 63.8186 16.9382Z" fill="#67A7FF"/>
<path d="M17.5042 52.4551H7.33283C7.27512 52.4551 7.21865 52.4593 7.16299 52.4657C6.58949 52.5319 6.11854 52.9316 5.94652 53.4634C5.94433 53.4698 5.94228 53.4741 5.94009 53.4805C5.93161 53.5083 5.92519 53.536 5.91766 53.566C5.91343 53.5831 5.90809 53.6002 5.90385 53.6195C5.88457 53.7135 5.875 53.8139 5.875 53.9142V64.166C5.875 64.9714 6.52754 65.625 7.33283 65.625C8.13811 65.625 8.79065 64.9714 8.79065 64.166V55.3711H17.5044C18.3097 55.3711 18.9622 54.7194 18.9622 53.9142C18.9622 53.1089 18.3095 52.4551 17.5042 52.4551Z" fill="#67A7FF"/>
</svg>
